<?xml version="1.0" encoding="utf-8"?>
<!-- Generator: Adobe Illustrator 25.3.1, SVG Export Plug-In . SVG Version: 6.00 Build 0)  -->
<svg version="1.1" id="Calque_1" xmlns="http://www.w3.org/2000/svg" xmlns:xlink="http://www.w3.org/1999/xlink" x="0px" y="0px"
	 viewBox="0 0 30 28.6" style="enable-background:new 0 0 30 28.6;" xml:space="preserve">
<style type="text/css">
	.st0{fill:#FFFFFF;}
</style>
<path class="st0" d="M26.9,9.6h-1.6l-6.5-9.2c-0.3-0.4-0.9-0.6-1.4-0.2c-0.5,0.3-0.6,0.9-0.2,1.4c0,0,0,0,0,0l5.7,8.1H7.1l5.7-8
	c0.3-0.4,0.2-1.1-0.2-1.4c0,0,0,0,0,0c-0.5-0.3-1.1-0.2-1.4,0.2L4.7,9.6H3.1c-1.7,0-3,1.4-3,3.1c0,1.3,0.8,2.4,2,2.8l1.1,10.3
	c0.2,1.6,1.5,2.8,3.1,2.8h17.5c1.6,0,3-1.2,3.1-2.8L28,15.6c1.6-0.6,2.4-2.3,1.8-3.9C29.4,10.4,28.3,9.7,26.9,9.6L26.9,9.6z
	 M3.1,11.6h23.9c0.6,0,1.1,0.5,1.1,1.1c0,0.6-0.5,1.1-1.1,1.1H3.1c-0.6,0-1.1-0.5-1.1-1.1C2,12.1,2.5,11.6,3.1,11.6
	C3.1,11.6,3.1,11.6,3.1,11.6z M24.9,25.6c-0.1,0.6-0.6,1-1.1,1H6.2c-0.6,0-1.1-0.4-1.1-1l-1-9.9h21.9L24.9,25.6z"/>
<path class="st0" d="M9.2,24.9h0.1c0.5-0.1,0.9-0.6,0.9-1.1l-0.7-5.3c-0.1-0.6-0.6-0.9-1.1-0.9s-0.9,0.6-0.9,1.1L8.2,24
	C8.3,24.5,8.7,24.9,9.2,24.9z"/>
<path class="st0" d="M15,24.9c0.6,0,1-0.4,1-1v-5.3c0-0.6-0.4-1-1-1s-1,0.4-1,1v5.3C14,24.4,14.4,24.9,15,24.9z"/>
<path class="st0" d="M20.6,24.9h0.1c0.5,0,0.9-0.4,1-0.9l0.7-5.3c0.1-0.6-0.3-1.1-0.9-1.1s-1.1,0.3-1.1,0.9l-0.7,5.3
	C19.7,24.3,20.1,24.8,20.6,24.9z"/>
</svg>
