<svg xmlns="http://www.w3.org/2000/svg" xmlns:xlink="http://www.w3.org/1999/xlink" version="1.1" x="0px" y="0px"
  viewBox="0 0 32 40" style="enable-background:new 0 0 32 32;" xml:space="preserve">
  <g>
    <path
      d="M27.93945,11.30879h-1.62683l-6.49817-9.21045c-0.31934-0.45117-0.94336-0.55957-1.39355-0.24023   C17.96973,2.17646,17.86133,2.8,18.17969,3.25166l5.68451,8.05713H8.1358l5.68451-8.05713   C14.13867,2.8,14.03027,2.17646,13.5791,1.8581c-0.45117-0.31934-1.0752-0.21094-1.39355,0.24023l-6.49817,9.21045H4.06055   C2.37305,11.30879,1,12.68183,1,14.36933c0,1.32202,0.84753,2.44,2.02386,2.86694l1.09528,10.2854   c0.1709,1.59814,1.51172,2.80371,3.11914,2.80371h17.52344c1.60742,0,2.94824-1.20557,3.11914-2.8042l1.09528-10.28491   C30.15247,16.80934,31,15.69135,31,14.36933C31,12.68183,29.62695,11.30879,27.93945,11.30879z M4.06055,13.30879h23.87891   c0.58496,0,1.06055,0.47559,1.06055,1.06055c0,0.58447-0.47559,1.06006-1.06055,1.06006H4.06055   C3.47559,15.42939,3,14.95381,3,14.36933C3,13.78437,3.47559,13.30879,4.06055,13.30879z M25.89258,27.30879   c-0.0625,0.57959-0.54785,1.0166-1.13086,1.0166H7.23828c-0.58301,0-1.06836-0.43701-1.13086-1.01611l-1.05176-9.87988h21.88867   L25.89258,27.30879z" />
    <path
      d="M10.24023,26.54804c0.04199,0,0.08496-0.00244,0.12793-0.0083c0.54785-0.06982,0.93555-0.5708,0.86523-1.11865   l-0.68457-5.34131c-0.07129-0.54736-0.56738-0.9375-1.11914-0.86475c-0.54785,0.06982-0.93555,0.5708-0.86523,1.11865   L9.24902,25.675C9.31445,26.17988,9.74414,26.54804,10.24023,26.54804z" />
    <path
      d="M16,26.54804c0.55273,0,1-0.44775,1-1v-5.34131c0-0.55225-0.44727-1-1-1s-1,0.44775-1,1v5.34131   C15,26.10029,15.44727,26.54804,16,26.54804z" />
    <path
      d="M21.63184,26.53974c0.04297,0.00586,0.08594,0.0083,0.12793,0.0083c0.49609,0,0.92578-0.36816,0.99121-0.87305   l0.68457-5.34131c0.07031-0.54785-0.31738-1.04883-0.86523-1.11865c-0.54883-0.07129-1.04785,0.31738-1.11914,0.86475   l-0.68457,5.34131C20.69629,25.96894,21.08398,26.46992,21.63184,26.53974z" />
  </g>
</svg>