<svg height='100px' width='100px' fill="#000000" xmlns="http://www.w3.org/2000/svg"
  xmlns:xlink="http://www.w3.org/1999/xlink" version="1.1" x="0px" y="0px" viewBox="0 0 512 512"
  style="enable-background:new 0 0 512 512;" xml:space="preserve">
  <g>
    <path
      d="M471.943,164.67c-0.762-0.452-8.37-4.883-20.274-9.706c3.619-6.079,7.028-14.507,2.747-21.322   c-4.07-6.497-12.935-7.692-19.758-7.496c0.739-7.576-0.971-13.66-5.128-18.15c-5.635-6.062-13.935-7.192-20.424-7.264   c0.623-8.966-1.391-15.456-6.04-19.338c-3.105-2.596-6.656-3.443-9.872-3.556c2.569-20.849,1.345-36.248,1.238-37.43   c-0.29-3.208-2.665-5.729-6.316-5.396c-1.954,0.128-47.402,3.543-86.368,29.362c-12.721-5.581-26.029-8.691-39.734-8.691   c-52.482,0-99.685,43.294-126.51,112.011c-34.003-2.198-72.589,25.076-97.607,69.961c-1.195,2.158-0.942,4.824,0.645,6.714   c1.152,1.362,2.825,2.108,4.541,2.108c0.659,0,1.318-0.109,1.963-0.333c0.166-0.055,14.173-4.872,30.924-6.664   c-0.195,1.216-0.375,2.439-0.375,3.709c0,10.223,6.575,18.862,15.688,22.128l10.753,66.233c-0.004,0.666,0.1,1.29,0.309,1.903   l7.002,43.13c0,0.004,0.002,0.006,0.002,0.009l11.398,70.21c2.752,16.933,22.119,30.216,44.093,30.216h179.14   c21.974,0,41.341-13.283,44.093-30.216l4.117-25.368c0.004-0.023,0.008-0.043,0.011-0.066l25.328-156.046   c9.122-3.263,15.709-11.904,15.709-22.133c0-6.952-3.081-13.146-7.883-17.467c30.619-21.838,47.945-51.659,48.731-53.026   C475.665,169.885,474.724,166.322,471.943,164.67z M395.446,90.498c0.826,0.681,3.303,3.831,0.942,15.673   c-0.377,1.941,0.232,3.954,1.637,5.352c1.405,1.398,3.476,2.013,5.36,1.622c3.23-0.63,13.37-1.47,17.455,2.933   c3.201,3.484,2.173,10.176,0.753,15.181c-0.565,1.977-0.058,4.107,1.333,5.628c1.376,1.506,3.491,2.224,5.49,1.818   c6.837-1.296,14.746-0.688,15.948,1.253c0.456,0.715,0.139,4.103-4.158,10.769c-17.111-5.701-39.481-10.37-62.909-7.981   c-0.79-1.542-1.563-3.106-2.376-4.613c8.661-16.161,13.691-33.173,16.485-48.418C392.853,89.57,394.456,89.666,395.446,90.498z    M382.872,47.527c0.289,13.492-0.809,47.153-15.102,78.188c-15.134-24.306-33.47-42.999-53.704-54.992   C340.972,54.761,370.449,49.202,382.872,47.527z M262.014,67.546c58.4,0,110.022,60.925,129.559,152.053h-10.146   c-5.549-25.099-13.547-47.781-23.499-67.233c-0.033-0.166,0.006-0.328-0.043-0.493c-0.286-0.971-0.848-1.755-1.512-2.433   c-18.351-34.596-42.816-58.539-69.865-67.697c-0.57-0.307-1.153-0.502-1.776-0.608c-7.418-2.323-15-3.658-22.718-3.658   c-43.582,0-83.687,38.68-106.974,99.888c-0.049,0.116-0.146,0.194-0.188,0.314c-0.045,0.126-0.02,0.254-0.056,0.381   c-4.867,12.897-8.963,26.806-12.216,41.539h-10.132C151.993,128.471,203.607,67.546,262.014,67.546z M381.093,415.788   c-102.893,27.075-208.781,9.089-253.531-1.096l-5.062-31.179c30.061,7.024,81.212,16.399,140.659,16.399   c38.816,0,81.069-4.315,123.047-15.62L381.093,415.788z M343.356,150.137c-17.192,5.911-38.85,16.761-57.694,36.019   c-6.134-5.544-14.195-8.992-23.097-8.992c-3.372,0-6.587,0.598-9.671,1.505c2.034-22.976,8.97-57.336,31.16-83.289   c0.446-0.521,0.916-1.002,1.37-1.511C307.398,102.191,327.5,121.93,343.356,150.137z M321.918,232.165   c3.853,11.82-2.593,24.589-14.384,28.594c-1.898,0.355-3.607,1.478-4.36,3.281c-0.913,2.216-0.623,4.505,1.086,6.207   c7.315,10.161,5.055,24.415-5.012,31.759c-9.734,6.982-23.198,5.229-31.31-4.389c-0.608-1.275-1.659-2.332-3.013-2.912   c-2.158-0.956-4.664-0.536-6.41,1.101c-0.536,0.492-0.637,0.492-0.956,1.159c-7.359,10.111-21.605,12.37-31.752,5.055   c-10.104-7.359-12.363-21.612-5.504-31.209l-4.15-4.244l4.194,4.193c1.702-1.695,2.209-4.244,1.289-6.468   c-0.688-1.644-2.057-2.868-3.701-3.39c-0.08-0.022-0.159-0.051-0.232-0.072c-11.929-3.918-18.476-16.781-14.594-28.666   c3.904-11.929,16.767-18.476,28.659-14.572c0.022,0.007,0.051,0.014,0.08,0.022c4.005,1.376,7.996-1.941,8.003-5.874   c0-12.523,10.19-22.713,22.713-22.713c12.523,0,22.706,10.19,22.706,23.024c0,2.397,1.463,4.556,3.665,5.468   c1.521,0.63,3.187,0.594,4.621-0.022c5.693-1.782,11.762-1.282,17.049,1.42C316.008,221.663,320.021,226.371,321.918,232.165z    M320.31,329.731c-6.01-0.874-16.462-3.823-24.475-13.057c3.622-1.08,7.134-2.733,10.366-5.064   c4.721-3.435,8.26-7.887,10.63-12.847C319.679,306.36,321.98,316.884,320.31,329.731z M201.784,367.306   c-0.795-14.648-1.057-45.626,8.348-65.007c2.254,3.527,5.138,6.722,8.716,9.325c6.185,4.461,13.363,6.576,20.432,6.576   c1.322,0,2.62-0.211,3.926-0.358C237.661,331.561,225.146,355.369,201.784,367.306z M209.008,208.574   c-3.263-5.688-5.769-11.421-6.811-17.15c-3.353-18.418,4.939-36.786,9.821-45.585c7.663,6.511,21.909,20.779,25.262,39.197   c0.178,0.985,0.249,1.96,0.366,2.939c-4.374,4.604-7.576,10.353-8.927,16.855C221.82,204.04,215.003,205.496,209.008,208.574z    M242.602,165.054c-10.261-19.925-27.911-32.261-28.86-32.903c-2.694-1.811-6.316-1.152-8.17,1.492   c-0.84,1.195-20.584,29.543-15.05,59.911c0.197,1.083,0.725,2.149,0.986,3.23c-5.532-7.254-13.412-14.973-23.464-20.032   c21.582-53.71,56.468-87.413,93.97-87.413c3.696,0,7.351,0.433,10.984,1.068C254.171,113.82,245.984,142.345,242.602,165.054z    M163.868,187.879c17.604,9.544,27.063,30.613,27.168,30.85c0.16,0.37,0.515,0.55,0.737,0.869h-37.011   C157.315,208.467,160.368,197.879,163.868,187.879z M204.006,266.777c1.181,0.891,2.36,1.785,3.667,2.528   c-2.707,5.984-3.494,12.49-2.669,18.777c-2.651,3.469-4.874,7.425-6.716,11.752c-46.909-5.067-81.527-14.082-92.146-17.07   l-2.596-15.987H204.006z M194.329,311.351c-2.574,9.698-3.857,20.113-4.413,29.752c-35.564-4.382-63.253-10.771-76.61-14.221   l-5.071-31.232C122.71,299.501,153.562,306.776,194.329,311.351z M388.262,371.62c-108.837,30.994-220.795,10.634-267.82-0.78   l-5.068-31.215c15.118,3.732,41.417,9.412,74.169,13.39c-0.063,13.017,0.934,22.702,1.045,23.707   c0.196,1.811,1.217,3.433,2.759,4.404c0.956,0.594,2.042,0.898,3.136,0.898c0.688,0,1.376-0.13,2.035-0.362   c14.919-5.452,26.366-14.767,35.111-24.885c10.148,0.514,20.197,0.854,30.059,0.854c46.769,0,90.123-6.031,129.69-17.523   L388.262,371.62z M395.45,327.336c-45.743,13.989-97.188,19.954-153.112,17.906c8.985-13.681,13.559-26.74,15.216-32.211   c1.78-1.111,3.463-2.388,5.01-3.84c5.528,5.015,12.457,7.904,19.636,8.674c14.113,22.916,38.803,24.106,42.745,24.106   c0.261,0,0.42,0,0.492-0.014c2.752-0.072,5.084-2.042,5.635-4.737c1.975-9.619,1.948-18.215,0.977-25.805   c22.871-2.938,44.692-7.867,68.492-15.449L395.45,327.336z M402.669,282.856c-26.039,8.669-48.503,13.848-73.069,16.928   c-3.299-11.167-8.08-18.443-9.824-20.764c-0.456-3.237-1.254-6.47-2.638-9.599c1.384-0.774,2.642-1.703,3.887-2.644h84.255   L402.669,282.856z M328.628,219.599c-3.225-4.685-7.449-8.617-12.648-11.262c-6.098-3.114-12.82-4.324-19.541-3.534   c-0.669-3.277-1.899-6.33-3.427-9.201c18.185-19.084,39.49-29.38,55.95-34.806c8.404,17.181,15.294,36.981,20.301,58.803H328.628z    M55.982,230.81c23.797-35.526,53.532-51.043,75.344-51.524c-4.366,12.715-8.1,26.146-11.035,40.313H99.184   c-6.788,0-12.868,2.923-17.176,7.527C72.358,227.608,63.174,229.163,55.982,230.81z M99.184,231.462h91.955   c-1.879,8.158-0.698,16.389,2.926,23.452H99.184c-6.468,0-11.726-5.258-11.726-11.726S92.717,231.462,99.184,231.462z    M376.369,444.889c-1.825,11.168-16.354,20.25-32.389,20.25h-179.14c-16.043,0-30.564-9.082-32.375-20.25l-2.855-17.582   c28.718,6.273,77.454,14.627,133.969,14.627c36.476,0,76.1-3.755,115.472-13.563L376.369,444.889z M409.641,254.914h-78.696   c3.625-7.063,4.809-15.292,2.928-23.452h75.768c6.46,0,11.719,5.258,11.719,11.726S416.102,254.914,409.641,254.914z    M412.94,219.932c-1.087-0.154-2.169-0.333-3.299-0.333h-5.902c-4.934-23.816-11.962-45.767-20.778-65.29   c33.578-1.95,65.283,11.571,77.553,17.713C453.887,182.039,437.263,204.411,412.94,219.932z">
    </path>
    <path
      d="M262.514,223.763c-13.182,0-23.901,10.719-23.901,23.894s10.719,23.894,23.901,23.894   c13.174,0,23.901-10.719,23.901-23.894S275.688,223.763,262.514,223.763z M262.514,259.687c-6.634,0-12.037-5.396-12.037-12.03   c0-6.634,5.403-12.03,12.037-12.03c6.634,0,12.03,5.396,12.03,12.03C274.544,254.291,269.148,259.687,262.514,259.687z">
    </path>
  </g>
</svg>