<svg id="OBJECTS" xmlns="http://www.w3.org/2000/svg" viewBox="0 0 186.48 123.96"><defs><style>.cls-1{fill:#eecebd;}.cls-2{fill:#d3a794;}.cls-3{fill:#6a5a45;}.cls-4{fill:#47513a;}.cls-5{fill:#657238;}.cls-6{fill:#778732;}.cls-7{fill:#4f5924;}.cls-8{fill:#606d2f;}</style></defs><path class="cls-1" d="M52.12,51.33a61.25,61.25,0,0,0,.93,8.55,10.88,10.88,0,0,0,1.45,4.21,4.21,4.21,0,0,0,3.76,2c.89,7.87,2.44,15.65,3.29,23.53.67,6.28-1.43,15.51,4.63,19.63,8.83,6,23.6,5.13,33.28,2.14,6.7-2.07,8.07-13.35,9.6-19.76,1-4.37,1.84-8.8,2.51-13.25.51-3.48,2.19-8.88,1.5-12.34l.21,1c1.14-.09,1.83-1,2.42-2a6,6,0,0,0,.64-2.12A70.7,70.7,0,0,1,118.84,49l-.43.94a4.67,4.67,0,0,0-3.12-2.81,133.9,133.9,0,0,0-60.91,1.08A3,3,0,0,0,52.12,51.33Z"/><path class="cls-2" d="M60,66.86a36.2,36.2,0,0,0,5,1q2.52.41,5,.75c3.28.44,6.56.78,9.86,1a116.17,116.17,0,0,0,20.26-.25c1.81-.18,3.61-.42,5.4-.7a27.45,27.45,0,0,0,5.61-1.18c.38-.15.38-.82-.11-.79-1.63.12-3.25.58-4.86.86s-3.25.52-4.89.71c-3.3.39-6.63.62-10,.71A146.21,146.21,0,0,1,71.25,68q-2.84-.31-5.67-.74c-1.83-.26-3.68-.7-5.53-.81-.23,0-.26.32,0,.39Z"/><path class="cls-2" d="M65.86,101.45a34.3,34.3,0,0,0,7.69,2.84,50.5,50.5,0,0,0,7.9,1.41,38.52,38.52,0,0,0,15.44-1.21,26.86,26.86,0,0,0,7.62-3.73c.49-.36,0-1.18-.48-.83-8.43,5.94-19.59,6.1-29.3,3.83a81.79,81.79,0,0,1-8.66-2.82c-.3-.11-.49.36-.21.51Z"/><path class="cls-3" d="M68.46,52.27a129.64,129.64,0,0,1,27.08-2.62c2.53,0,17.64,1.2,12.88,5.88-2.42,2.39-8.24,2.36-11.33,2.59a130.45,130.45,0,0,1-24.68-.32c-1.61-.19-5.47-.38-6.58-1.78C64.16,54,66.43,52.69,68.46,52.27Z"/><path class="cls-4" d="M67.16,54.17c-2.22,8.2-3.7,16.65-5.42,25-1.65,8-2.25,17.14-8.79,22.79-5.74,5-12.73,8.19-19.64,11.14-5.54,2.36-11.78,5-15.22,10.22-.27.41.37.91.7.53,4.76-5.53,11-8,17.51-10.9S50,106.41,55.08,101.23c5.33-5.41,5.92-13.8,7.39-20.88,1.79-8.64,3.88-17.32,5.14-26,0-.29-.36-.43-.45-.13Z"/><path class="cls-4" d="M92.12,52.46c3,4,3.08,8.67,4,13.42s3.18,9.08,5.12,13.5a40.17,40.17,0,0,1,3.33,15.92c.09,4.76.15,9.45,2,13.9.17.39.87.11.7-.29-2.18-5.17-1.8-10.7-2-16.18A36.87,36.87,0,0,0,101.86,79c-2.16-4.86-4.49-9.53-5.33-14.83-.66-4.13-.92-8.88-4.09-12-.16-.16-.47.05-.32.24Z"/><path class="cls-4" d="M101.43,79.05c7.1.64,12.53-7.5,19.8-4,3.43,1.64,6.13,4.68,9.14,7a53,53,0,0,0,10.17,6.11,36.78,36.78,0,0,0,10.48,3c3.91.49,7.54-.18,11.42-.49a14.92,14.92,0,0,1,6.84.92,57.59,57.59,0,0,0,5.47,2.24c2.51.7,5.17.63,7.2-1.14.44-.38-.14-1.15-.62-.81-3.89,2.76-8,.16-11.76-1.32-3.61-1.4-7-1-10.78-.5-8.06,1-15.69-1.27-22.61-5.38a75,75,0,0,1-9.73-7.16c-2.3-1.91-4.8-3.86-7.87-4.19-6.15-.65-11.14,4.77-17.15,5.4a.18.18,0,0,0,0,.36Z"/><path class="cls-4" d="M62.6,52.93c-4.11,2.44-6.07,5.34-8,9.66a19.7,19.7,0,0,1-3.55,6c-2.34,2.38-5.52,2.84-8.6,3.67-.27.08-.23.55.07.52,4.67-.53,8.64-2.29,11-6.49,1.13-2,1.88-4.2,2.9-6.26a16.83,16.83,0,0,1,6.33-6.82c.19-.13,0-.44-.18-.31Z"/><path class="cls-4" d="M57,52.77c-3.45-.07-7.14.42-10.54-.12s-5.92-3.11-8.27-5.59c-3.52-3.72-8.18-8.13-13.72-7.71a.37.37,0,0,0,0,.74,17.73,17.73,0,0,1,9.92,4.56c2.24,2,4.07,4.34,6.35,6.25C45.36,54.82,51.3,53.65,57,53.11a.17.17,0,0,0,0-.34Z"/><path class="cls-4" d="M125.45,50.89c1.56-3.76,2.66-9.79,7.11-11a.19.19,0,0,0-.05-.38c-4.89-.22-6.26,7.93-7.39,11.28-.08.22.25.29.33.09Z"/><path class="cls-4" d="M139.71,87.82a18.27,18.27,0,0,0,7.9-6.2A23.62,23.62,0,0,0,150.82,77a11.52,11.52,0,0,0,.52-4.53c0-.23-.35-.35-.45-.12-.52,1.2-.13,2.34-.47,3.61-.43,1.59-1.76,3.08-2.72,4.37a22.66,22.66,0,0,1-8.17,7.11c-.24.12-.07.53.18.43Z"/><path class="cls-4" d="M58,45.59c-4.17-.08-7.74-.12-11.14-2.89-2.4-2-4.45-4.65-7.14-6.21-.18-.1-.43.12-.3.3a29.2,29.2,0,0,0,4.42,4.33A31.71,31.71,0,0,0,48,44.52c3.06,2,6.61,2,10.1,1.44.21,0,.15-.37,0-.37Z"/><path class="cls-5" d="M26.62,99.81c3.33-.49,6.7.91,9.38,3s4.83,4.69,7.13,7.16,4.86,4.82,8,6Q41,117,30.86,117.69a9.06,9.06,0,0,1-3.12-.13c-2.43-.68-5.44-5.08-2.42-6.78C18.45,108.75,20,100.8,26.62,99.81Z"/><path class="cls-4" d="M25,116.21c-2.06.65-4.09-.68-3.72-3,.28-1.72,2.41-2.71,3.89-3a17,17,0,0,1,7,.24.3.3,0,0,0,.22-.54c-1.71-1.31-4.35-1-6.36-.69s-4,1-5,2.86c-1.56,2.82,1.23,6.29,4.23,4.59.24-.14.08-.55-.19-.46Z"/><path class="cls-5" d="M42.28,99.39c-1.61-2.09-4.54-2.56-6.69-4.09-1.09-.77-2-1.81-3.06-2.59-2.24-1.62-5.1-2-7.83-2.37-2.9-.38-5.83-.68-8.71-1.15,3.4-1.23,8.55-.51,12.21-.7a15.62,15.62,0,0,1,5.71.43c2.59.88,4.64,3.13,7.33,3.59,2,.35,4.18-.36,6.11.33a5.15,5.15,0,0,1,2.84,6.28c-1.35,4.19-6.76,5.64-7.61,10.08C41.76,105.9,44.9,102.78,42.28,99.39Z"/><path class="cls-5" d="M11.17,118.48a10.61,10.61,0,0,1-2.7-.32A10.67,10.67,0,0,1,6.08,117L0,113.28a5.75,5.75,0,0,1,2.09-.86c4-1,8.41-2.09,12.29-.56a6.31,6.31,0,0,1,2.47,1.61,18.68,18.68,0,0,1,1.31,1.85,9.57,9.57,0,0,0,4.91,3.53C19.11,118.68,15.13,118.6,11.17,118.48Z"/><path class="cls-5" d="M41.55,81.62a26.06,26.06,0,0,1-7.1,1.73c-3.54.28-7.09-.47-10.64-.41s-7.42,1.19-9.34,4.17a44.53,44.53,0,0,1,12.76-16,23.43,23.43,0,0,1,8.94-4.65c2.32-.53,14.88.82,10,5.6,1.39-.25,2.55,1.36,2.41,2.77C48.21,78.38,44.44,80.54,41.55,81.62Z"/><path class="cls-6" d="M55,91.05c.33-.73.82-1.38,1.13-2.11.82-1.89.45-4.12,1.23-6,1.43-3.47,6.14-4.4,9.71-3.22s6.41,3.83,9.59,5.82,7.26,3.37,10.63,1.72c-.15,3.11-3.16,5.47-6.23,6s-6.2-.22-9.26-.86-6.31-1.13-9.23,0a9.49,9.49,0,0,1-2.55.82,3.22,3.22,0,0,1-3-4.33,5.87,5.87,0,0,0-1,5.08,17.52,17.52,0,0,0,2.21,4.89c1.83-1.35-2.11-1.78-2.33-2A5.59,5.59,0,0,1,55,91.05Z"/><path class="cls-7" d="M35.17,38.58a29.74,29.74,0,0,1-6.44,1.1c-1.18,0-2.36-.26-3.54-.2a3.93,3.93,0,0,0-3.11,1.44,16.7,16.7,0,0,1-.16-4.35,5.67,5.67,0,0,1,2-3.77,6.39,6.39,0,0,1,5-.87,3.43,3.43,0,0,0,2.08,0,3.25,3.25,0,0,0,.94-.79,7.55,7.55,0,0,1,6-2.35,5.32,5.32,0,0,1,4.65,4.14c.16,1,.23,5.8-.52,6.19-.56.29-2.1-.69-2.7-.77A11.83,11.83,0,0,0,35.17,38.58Z"/><path class="cls-5" d="M27.1,42.06a18.79,18.79,0,0,0-12.69,4.11c.27-3.29,2.43-6.74,5.7-7.18a12.21,12.21,0,0,0,1.61-.2,12.09,12.09,0,0,0,2.2-1.14,7,7,0,0,1,7.36,1,10.9,10.9,0,0,1,3.8,6.56C32.12,43.93,30.7,42.14,27.1,42.06Z"/><path class="cls-5" d="M111.36,95.48a7.42,7.42,0,0,1,1.85-2.77,13.64,13.64,0,0,1,2.3-1.36,12.35,12.35,0,0,0,4.87-4.93,3.72,3.72,0,0,0,.22,3.66,16.83,16.83,0,0,0,2.46,3,21,21,0,0,1,4.24,7,13.82,13.82,0,0,1,.87,4.4,10.37,10.37,0,0,1-5.33,9.06,6.14,6.14,0,0,1-4.77.68,3.5,3.5,0,0,1-2.45-3.79,5,5,0,0,1-4.38,2,4.8,4.8,0,0,1-4.06-3c1-.08,2.12.43,3.13.24C109.46,104.83,109.33,100.16,111.36,95.48Z"/><path class="cls-6" d="M110.08,95.1a9.93,9.93,0,0,0-2.52-2.91c-3.74-2.72-9.24-.67-12.34,2.76s-4.72,7.93-7.39,11.7-7.21,7-11.66,5.75c5.11,2.43,10.58,4.92,16.19,4.2,3.64-.47,7-2.26,10.64-2.76,2.29-.32,4.64-.12,6.92-.53s4.62-1.64,5.43-3.81a4.75,4.75,0,0,0-3.68-6.09,10.84,10.84,0,0,0,1.31-1.49C112.05,100.37,111.34,97.14,110.08,95.1Z"/><path class="cls-7" d="M141,73.22c-2.47-2.51-1.68-6.62-2.23-10.1-.88-5.49-5.31-9.65-9.69-13.08,3.9,1.12,8,1.28,12,1.66s8.14,1,11.68,3,6.42,5.53,6.6,9.58a9.21,9.21,0,0,1-1.56,5.56c-1.68,2.51-4.91,4.05-7.87,3.05C150.76,76.45,142.48,74.73,141,73.22Z"/><path class="cls-6" d="M140.83,66.64c4.09.23,8.54-.45,11.46-3.32a39.55,39.55,0,0,1-6.95,15.18,18.56,18.56,0,0,1-5.63,5.29c-3.51,1.95-7.75,2-11.76,1.76a16.73,16.73,0,0,1-6.15-1.26c-2.93-1.37-4.59-4.15-3.5-7.29.54-1.57,1.43-2.24,1.55-4,.07-1.08-.57-2.13-.19-3.22C122.05,62.82,135.86,66.37,140.83,66.64Z"/><path class="cls-5" d="M158.67,80.2a16.9,16.9,0,0,1-5-4.82c-2.34-4-1.1-9-1.92-13.59,2.72,3,7.52,2.5,11.44,3.61a13.34,13.34,0,0,1,9.45,12.11c.14,4.85-3.45,11.66-8.67,12.47.39-1.17,1.62-2.61,1.4-3.94C165,83.63,160.48,81.52,158.67,80.2Z"/><path class="cls-6" d="M179,81.61c2.81-.91,5.73-2.88,6-5.82,1.26,3.3,2.26,7.11.62,10.23a9,9,0,0,1-6.22,4.26c-3,.64-5.87,0-8.88-.18-2.32-.11-3.24.7-2.92-1.74C168.21,83.73,175.69,82.68,179,81.61Z"/><path class="cls-6" d="M140.52,35.89c3.24,1,6.4,2.69,9.8,2.59,1.81-.06,3.91-.52,5.19.76-5.22,2-11.14,1.08-16.6,2.37-2.73.64-12.36,4.61-10.18-1.53C130.48,35.13,136.26,34.56,140.52,35.89Z"/><path class="cls-5" d="M45.68,26c-1.28-.94-2.94-1.37-4-2.59a7.45,7.45,0,0,1-1.27-4.33,1.27,1.27,0,0,1,.1-.75,1,1,0,0,1,.7-.38c2.17-.33,4.1,2.44,6.17,1.7a5.47,5.47,0,0,0,1.21-.76,8.54,8.54,0,0,1,6.63-1.42,3.78,3.78,0,0,1-.78,3.1A22.29,22.29,0,0,1,52.22,23a15.19,15.19,0,0,0-4,8.79C47.88,29.63,47.62,27.47,45.68,26Z"/><path class="cls-7" d="M89.25,24.36c-3.91-.07-7.1-3-9.87-5.77l-6.31-6.27a40.66,40.66,0,0,1,9.26-.82,20.35,20.35,0,0,1,14.73,8c2.55,3.39,4.33,8.11,4,12.38-.65-1.93-1-4-2.32-5.66C96,22.94,92.84,24.43,89.25,24.36Z"/><path class="cls-5" d="M96.46,41c4,0,7.35,3.08,9.49,6.46s3.51,7.23,6,10.35a18.34,18.34,0,0,0,15.75,6.71c3.86-.36,7.72-2,11.5-1.08-2.84-3.57-2.12-9.21-5.36-12.41-1.57-1.55-3.78-2.21-5.71-3.28-2.42-1.35-4.4-3.37-6.64-5a25,25,0,0,0-25.8-1.85A2.9,2.9,0,0,1,99,44.51"/><path class="cls-7" d="M63.34,59.24c-1.73,2.11-1.4,5.42.26,7.6a11.16,11.16,0,0,0,7,3.82c10.81,1.92,21.59-5.94,32.4-4A67.45,67.45,0,0,0,87.15,53.88c-3.47-2-7.22-3.72-11.22-4-2.85-.18-6,.6-7.63,3-1.27,1.9-.84,5.26,1.33,6.25C68.91,56.62,64.64,57.65,63.34,59.24Z"/><path class="cls-5" d="M50.55,55.91c1.05,3.06,3.87,5.24,6.91,6.33A32.73,32.73,0,0,0,67,63.65c-2.69-1.65-4.21-5.36-2.73-8.14a16.16,16.16,0,0,1,1-1.59c2-3,2.67-7.23.52-10.13a2.7,2.7,0,0,0-1.21-1c-2.06-.75-3.26,1.89-3.58,3.45.17-4.63-4.24-5.09-7-2.49C51,46.56,49.16,51.92,50.55,55.91Z"/><path class="cls-6" d="M77.48,55a88.23,88.23,0,0,0,12.83-2.21c-.93-.91-1.13-2.32-1.77-3.45A9.17,9.17,0,0,0,85,46.32a88.25,88.25,0,0,0-9.63-4.94c-2-.88-5.51-2.54-7.09-.1a3.15,3.15,0,0,0,1.41,4.44c-4.81-.09-6.6,5.25-2.66,7.84C69.93,55.47,74.19,55.35,77.48,55Z"/><path class="cls-5" d="M45.73,35.35c-1.44-.35-2.85-1.56-2.71-3A2.88,2.88,0,0,1,45.59,30a7.49,7.49,0,0,1,3.65.65A44.66,44.66,0,0,1,65.29,41a13.25,13.25,0,0,0-9.07-1.38c-3.47.73-8.37,3.49-11.94,1.44C41.63,39.54,42,34.44,45.73,35.35Z"/><path class="cls-5" d="M59.62,17.89c3.12-2.14,7.2-3.39,8.91-6.77a49.29,49.29,0,0,1-.46,11.52,16.73,16.73,0,0,1-5.48,9.91c-2.42,2-6.34-1.21-4.31-2.84-1.41,1.13-3.71,1.7-4.87-.14C51.16,26,57.05,19.66,59.62,17.89Z"/><path class="cls-5" d="M104,16c4.43-7,14-9.23,18.88-16a46.49,46.49,0,0,0-2.41,18.35,22.89,22.89,0,0,1,0,6.35,13.71,13.71,0,0,1-2.71,5.4,6.79,6.79,0,0,1-7.15,3c-2.35-.33-4.6-1.14-3.25-4.11-2.84,2.13-4.93-1.58-5.53-3.91C101.05,21.88,102.38,18.6,104,16Z"/><path class="cls-7" d="M102,30.46a18,18,0,0,1-13-1.74l8.41,8.41a31.42,31.42,0,0,0,4.81,4.2,16,16,0,0,0,16.41.45c1.48-.86,2.92-2.14,3.14-3.83s-1.47-3.58-3.06-3a3.14,3.14,0,0,0,2.74-3.59C120.36,24.29,105.76,29.54,102,30.46Z"/><path class="cls-5" d="M85.47,31.55a10.17,10.17,0,0,0-4.06-2.3,35.27,35.27,0,0,0-7.1-1.68,14.51,14.51,0,0,1-3.48-.69,3.86,3.86,0,0,1-2.44-2.42c4.74,1.17,9.35-2.13,14.19-2.82,3.22-.46,6.79.43,8.86,2.94s2.06,6.74-.51,8.73A33.14,33.14,0,0,0,87.26,36C86.72,34.46,86.68,32.8,85.47,31.55Z"/><path class="cls-7" d="M73.85,37c1.24,1.44,1.75,3.36,2.44,5.14a24,24,0,0,0,5,7.87A11.37,11.37,0,0,0,87,53.57a5.64,5.64,0,0,0,6-2.31c1.15-2,.15-5-2.09-5.51a6.84,6.84,0,0,0,2.65.22c5.78-1.07-2.54-6.26-5.19-6.4C83.29,39.31,78.28,40.38,73.85,37Z"/><path class="cls-5" d="M94.26,43.1a3.13,3.13,0,0,0-3.52,1.39C90,45.86,90.33,47.6,91,49a12.88,12.88,0,0,0,3.62,4.59c3.34,2.67,8.14,3.84,10.06,7.66-1.32-5.15.47-10.53.52-15.84a5.5,5.5,0,0,0-.75-3.3,4.86,4.86,0,0,0-2.62-1.64,6.57,6.57,0,0,0-3.43-.19,3.69,3.69,0,0,0-2.57,2.14,3.5,3.5,0,0,0,.38,3.18A2.61,2.61,0,0,0,94.26,43.1Z"/><path class="cls-5" d="M61.38,27.89A29.38,29.38,0,0,1,75.9,29.17a12.09,12.09,0,0,1,5.64,3.57c1.39,1.78,1.89,4.41.68,6.31s-4.34,2.42-5.75.66C78,41.68,74,44,72.55,43.8c-3.13-.49-1.86-2.28-2.08-4.27C69.94,34.77,65.4,30,61.38,27.89Z"/><path class="cls-8" d="M84,34.49c2.23-1.11,4.81-1.15,7.26-1.56a23.67,23.67,0,0,0,5.63-1.67c2.35-1,4.74-2.76,5.16-5.3a58.22,58.22,0,0,1-1.6,12c-.47,2-1.12,4-2.64,5.42a9.34,9.34,0,0,1-5.76,1.9,8.69,8.69,0,0,1-3.89-.46,3.67,3.67,0,0,1-2.33-2.94,5.94,5.94,0,0,1-3.77,1.37C77.59,42.68,82,35.5,84,34.49Z"/><path class="cls-5" d="M128,28.88c4.84-.82,9.31-3.13,13.44-5.78,1-.66,2.16-1.63,1.93-2.82a35.74,35.74,0,0,1-2.09,8.18,18.16,18.16,0,0,1-14.05,10.59,11.41,11.41,0,0,1-6.18-.72,2.26,2.26,0,0,1-1.21-1c-.53-1.21.92-1.81,1.78-1.62-3.15,1-4.64-2.22-2.6-4.25S125.39,29.32,128,28.88Z"/><path class="cls-4" d="M56.91,29.92c-.69,3.21,1,6,3.25,8.23,2.91,2.92,8.4,5.57,9.3,9.85a.33.33,0,0,0,.65-.09c0-3.28-3.41-5.27-5.67-7.14-3.55-3-7.18-5.76-7.26-10.81a.14.14,0,0,0-.27,0Z"/><path class="cls-4" d="M47.62,20.57c0-3.31,3.78-4.41,6.18-2.78a7.49,7.49,0,0,1,2.85,4.79c.74,3.49.13,7.29.43,10.85.35,4.25.88,10.6,5.1,12.91a.27.27,0,0,0,.33-.42c-3.31-3.63-4.24-7.69-4.69-12.49-.38-4.09.54-8.73-.94-12.64-.9-2.37-3-4.72-5.75-4.54a4,4,0,0,0-3.91,4.32c0,.25.4.27.4,0Z"/><path class="cls-6" d="M46.66,71.22c-6.56.86-14.61,1-19.45,6.12a.21.21,0,0,0,.29.29c5.46-5,12.75-3.78,19.2-6.16.13,0,.12-.28,0-.25Z"/><path class="cls-6" d="M18.79,117.29c-2.75-.69-5.42-1.83-8.17-2.41-2.35-.5-4.42.25-6.71.67-.18,0-.12.29,0,.3a11.65,11.65,0,0,0,2.77-.21A10.33,10.33,0,0,1,12,116c2.26.73,4.36,1.57,6.77,1.58a.15.15,0,0,0,0-.29Z"/><path class="cls-6" d="M60.54,46.14c-4.69,3.39-3.13,11.57.86,14.83a.15.15,0,0,0,.21-.21c-2.85-3.63-5.39-10.88-.92-14.42.11-.09,0-.28-.15-.2Z"/><path class="cls-6" d="M67.51,57.64c1,3.2,6.95,3.47,9.6,3.18,3-.34,5.53-1,8.58-.23a35.94,35.94,0,0,1,8.44,3.48.32.32,0,0,0,.32-.55,23.37,23.37,0,0,0-11.57-4.11c-2.39-.11-4.64.76-7,.84s-6.65-.39-8-2.74a.17.17,0,0,0-.32.13Z"/><path class="cls-6" d="M116.21,110.29c4-4.06,7.52-12.65,1.9-17.1-.18-.14-.47,0-.34.25,1.54,2.53,2.71,4.82,2.46,7.89a16,16,0,0,1-4.14,8.84c-.07.08,0,.2.12.12Z"/><path class="cls-6" d="M165.53,88.62c2.21-4.4,4.14-9.74,1.08-14.22s-8.87-6.22-12.82-9.78a.26.26,0,0,0-.37.37c2.9,3.51,7.46,4.89,10.76,7.93,4.85,4.46,3,10.18.86,15.49-.12.28.36.48.49.21Z"/><path class="cls-6" d="M120.06,35.35a128.64,128.64,0,0,0,13.32-3.1c2.28-.73,4.71-2.22,4.47-4.93,0-.17-.29-.24-.34,0-.84,4-5,4.48-8.41,5.28C126,33.3,123,34,119.92,34.85a.26.26,0,0,0,.14.5Z"/><path class="cls-6" d="M109.92,28.45A32.16,32.16,0,0,1,112,16.33c1.29-3.62,2.73-6.93,6.07-9.08.08-.06,0-.21-.07-.17-3.25,1.21-4.84,4.55-6,7.59-1.64,4.24-3.39,9.23-2.35,13.83a.16.16,0,0,0,.31-.05Z"/><path class="cls-6" d="M57.91,29.75a20.47,20.47,0,0,0,9-14.29c0-.12-.16-.13-.19,0a28.26,28.26,0,0,1-9,14.08.15.15,0,0,0,.19.24Z"/><path class="cls-6" d="M44.75,35.44a18.66,18.66,0,0,1,7.25.45c1.9.58,3.55,1.74,5.59,1.48a.15.15,0,0,0,0-.29c-2.57-.19-4.85-1.88-7.42-2.29a13.37,13.37,0,0,0-5.49.19c-.25.06-.2.49.07.46Z"/><path class="cls-6" d="M47,20.66a6.63,6.63,0,0,0,1.59,6.08.09.09,0,0,0,.15-.11,11.54,11.54,0,0,1-1.27-5.9.24.24,0,0,0-.47-.07Z"/><path class="cls-6" d="M138.23,61.84c-5.67-1.57-11.67-5.69-15.86-9.73-3.62-3.48-7-6.15-12.22-6.37-.2,0-.19.29,0,.31a16.59,16.59,0,0,1,9.22,4.12c1.91,1.72,3.57,3.63,5.64,5.18,3.86,2.89,8.29,6.16,13.18,6.79.17,0,.2-.26,0-.3Z"/><path class="cls-6" d="M96.69,43.76c-.33,5.86,5.68,8.66,6.86,14,0,.1.16.06.15,0-.82-5.42-6.73-8.13-6.64-13.94,0-.24-.36-.23-.37,0Z"/><path class="cls-8" d="M79.15,14.47C84.76,20,94.45,18.07,99,25.05a.25.25,0,0,0,.43-.25C95.52,17.5,85,19.32,79.29,14.33c-.1-.08-.23.05-.14.14Z"/><path class="cls-8" d="M101.75,36.21c3,.29,5.84.92,8.77,1.29a8.43,8.43,0,0,0,5.57-.86.21.21,0,0,0-.16-.39,21.88,21.88,0,0,1-7.74.07,39.63,39.63,0,0,0-6.44-.57c-.3,0-.28.43,0,.46Z"/><path class="cls-8" d="M77.53,39.84A11.89,11.89,0,0,0,68.86,29a.19.19,0,0,0-.14.34c1.91,1.35,4.09,2.17,5.64,4a13.74,13.74,0,0,1,2.77,6.54c0,.23.43.18.4-.06Z"/><path class="cls-8" d="M89.07,33a7,7,0,0,0-1.44-7.07c-1.8-2-5.36-2.18-7.76-1.22-.28.11-.27.59.08.57,2.23-.12,5.14-.72,6.91,1.06a6.88,6.88,0,0,1,1.74,6.53.24.24,0,0,0,.47.13Z"/><path class="cls-8" d="M69.69,47.26c4,1.07,7.55,5.47,11.9,5,.15,0,.21-.25,0-.29a20.48,20.48,0,0,1-6.88-3.15,10.84,10.84,0,0,0-5-2,.22.22,0,0,0-.06.43Z"/><path class="cls-8" d="M130.63,42.23c2-2.79,5.32-3.45,8.5-2.87,2.13.38,4.06,1.56,6.25,1.37a.36.36,0,0,0,0-.71c-3.39-.33-6.35-2.21-9.87-1.63A7.09,7.09,0,0,0,130.23,42a.23.23,0,0,0,.4.23Z"/><path class="cls-8" d="M152,68.47c.47-3.37.39-6.17-2-8.79-2-2.22-5-5-8.25-4.66-.24,0-.35.41-.06.47a13.83,13.83,0,0,1,7.17,4.16c2.54,2.51,2.85,5.38,2.75,8.77,0,.21.35.27.38,0Z"/><path class="cls-8" d="M169.2,89.38c3.18-2.71,7-2.69,10.87-3.31,2.39-.39,4.81-1.57,5.63-4a.28.28,0,0,0-.47-.27c-1.36,1.46-2.49,2.72-4.56,3.21-1.6.38-3.31.36-4.93.65a12.59,12.59,0,0,0-7,3.3c-.27.27.13.66.41.41Z"/><path class="cls-8" d="M120.18,73.78a31.26,31.26,0,0,1,8.53.3,39.59,39.59,0,0,0,6.4,1.07c3.88,0,6.86-2.82,9.07-5.76.21-.27-.2-.67-.47-.47-1.38,1-2.46,2.31-3.76,3.41-2.6,2.21-5.34,2-8.47,1.37a31,31,0,0,0-11.35-.32c-.23,0-.18.43.05.4Z"/><path class="cls-8" d="M57.09,88.7c7.75-7.62,17.94,5.92,26,.15.19-.14.08-.51-.18-.41-5.88,2.31-10.47-.69-16.1-2.13-3.51-.91-7.43-.74-10,2.14-.15.17.09.41.25.25Z"/><path class="cls-8" d="M112.57,103.78c-3.5-3.21-8.21-3.27-12.11-.7-5,3.3-9.81,11-16.7,7.41a.25.25,0,0,0-.25.43c3.78,2.34,8.08.24,11.15-2.3,2.22-1.85,4.2-4.07,6.75-5.48a9.5,9.5,0,0,1,10.91.89c.17.14.42-.09.25-.25Z"/><path class="cls-8" d="M41.56,38c-.66-4.38-8.11-4.8-11.19-3.19-.18.09-.1.41.1.39,3.14-.32,9.35-1.12,10.64,2.93a.23.23,0,0,0,.45-.13Z"/><path class="cls-8" d="M33.43,42.88c-1.76-2-4.44-4.68-7.37-3.47-.24.1-.25.51.07.5,3-.16,4.9,1.32,7,3.3a.23.23,0,0,0,.32-.33Z"/><path class="cls-6" d="M87.11,41.55c1.4-2.72,6.19-2.26,8.55-3.94a6.72,6.72,0,0,0,2.92-4.44c0-.15-.21-.19-.27-.07a12.62,12.62,0,0,1-2.52,3.61,11.49,11.49,0,0,1-4.87,2.07c-1.67.44-3.55.8-4.12,2.63a.17.17,0,0,0,.31.14Z"/></svg>