<?xml version="1.0" encoding="utf-8"?>
<!-- Generator: Adobe Illustrator 25.3.1, SVG Export Plug-In . SVG Version: 6.00 Build 0)  -->
<svg version="1.1" xmlns="http://www.w3.org/2000/svg" xmlns:xlink="http://www.w3.org/1999/xlink" x="0px" y="0px"
	 viewBox="0 0 94.9 95" style="enable-background:new 0 0 94.9 95;" xml:space="preserve">
<style type="text/css">
	.st0{fill:#FFFFFF;}
</style>
<g id="Calque_2">
</g>
<g id="Calque_1">
	<g>
		<g>
			<path class="st0" d="M52.7,9.7c8.7,0,16.8,3.4,23,9.5c6.1,6.1,9.5,14.4,9.5,22.9c0,2.5,2,4.5,4.5,4.5l0,0c2.5,0,4.5-2,4.5-4.5
				c0.1-10.9-4.3-21.6-12.1-29.4c-7.9-7.6-18.3-12-29.4-12c-2.5,0-4.5,2-4.5,4.5S50.2,9.7,52.7,9.7z"/>
		</g>
		<g>
			<path class="st0" d="M52.7,27c4.1,0,7.9,1.6,10.8,4.5c2.9,2.9,4.5,6.7,4.5,10.8c0,2.5,2,4.5,4.5,4.5s4.5-2,4.5-4.5
				c0-6.5-2.5-12.6-7.1-17.2S59.2,18,52.7,18c-2.5,0-4.5,2-4.5,4.5S50.2,27,52.7,27z"/>
		</g>
		<g>
			<path class="st0" d="M91.4,69L72,59c-2.7-1.4-6.1-0.7-8,1.7l-7.1,9.1c-6.9-3.7-12.2-7.3-18.3-13.4c-6.5-6.5-10-11.9-13.6-18.6
				l9-7c2.4-1.9,3.2-5.3,1.7-8L25.8,3.5C24,0.1,19.7-1,16.6,1.1L4.2,9.3c-2.8,1.9-4.4,5.2-4.2,8.6c0.2,3.5,0.7,7.9,1.5,11
				C5.1,42.7,13.7,57,25.8,69.1C37.9,81.3,52.2,89.9,66,93.5c3.1,0.8,7.5,1.2,11.1,1.5c3.5,0.2,6.8-1.5,8.7-4.4l8-12.5
				C95.9,74.9,94.7,70.7,91.4,69z"/>
		</g>
	</g>
</g>
</svg>
